<svg width="4573" height="3379" viewBox="0 0 4573 3379" fill="none" xmlns="http://www.w3.org/2000/svg">
<rect width="4074" height="3008" rx="497" fill="#D9D9D9"/>
<g filter="url(#filter0_d_167_16)">
<path d="M2137.4 1407.7C2193.87 1423.83 2238.23 1450.97 2270.5 1489.1C2302.77 1527.23 2318.9 1571.23 2318.9 1621.1C2318.9 1667.3 2300.2 1710.93 2262.8 1752C2226.13 1792.33 2179.93 1824.6 2124.2 1848.8C2069.2 1873 2016.77 1885.1 1966.9 1885.1C1930.23 1885.1 1894.3 1883.27 1859.1 1879.6C1800.43 1875.93 1754.97 1874.1 1722.7 1874.1H1583V1840L1686.4 1758.6V1089.8L1572 1052.4L1594 1008.4H1721.6C1788.33 1008.4 1853.97 1006.2 1918.5 1001.8C1968.37 998.867 2005.03 997.4 2028.5 997.4C2077.63 997.4 2120.9 1006.93 2158.3 1026C2195.7 1045.07 2224.3 1071.1 2244.1 1104.1C2264.63 1136.37 2274.9 1172.67 2274.9 1213C2274.9 1249.67 2262.07 1284.87 2236.4 1318.6C2211.47 1351.6 2178.47 1380.57 2137.4 1405.5V1407.7ZM2126.4 1268C2126.4 1210.07 2111 1162.77 2080.2 1126.1C2049.4 1089.43 2003.57 1071.1 1942.7 1071.1C1898.7 1071.1 1859.1 1083.57 1823.9 1108.5V1400H1981.2C2026.67 1400 2062.23 1388.63 2087.9 1365.9C2113.57 1342.43 2126.4 1309.43 2126.4 1266.9V1268ZM1997.7 1804.8C2050.5 1804.8 2092.3 1791.6 2123.1 1765.2C2154.63 1738.8 2170.4 1703.23 2170.4 1658.5C2170.4 1601.3 2153.53 1555.1 2119.8 1519.9C2086.8 1484.7 2037.3 1466 1971.3 1463.8C1966.17 1464.53 1959.2 1464.9 1950.4 1464.9H1823.9V1776.2C1873.03 1796 1930.97 1805.9 1997.7 1805.9V1804.8Z" fill="white"/>
</g>
<g filter="url(#filter1_d_167_16)">
<path d="M2086.4 1407.7C2142.87 1423.83 2187.23 1450.97 2219.5 1489.1C2251.77 1527.23 2267.9 1571.23 2267.9 1621.1C2267.9 1667.3 2249.2 1710.93 2211.8 1752C2175.13 1792.33 2128.93 1824.6 2073.2 1848.8C2018.2 1873 1965.77 1885.1 1915.9 1885.1C1879.23 1885.1 1843.3 1883.27 1808.1 1879.6C1749.43 1875.93 1703.97 1874.1 1671.7 1874.1H1532V1840L1635.4 1758.6V1089.8L1521 1052.4L1543 1008.4H1670.6C1737.33 1008.4 1802.97 1006.2 1867.5 1001.8C1917.37 998.867 1954.03 997.4 1977.5 997.4C2026.63 997.4 2069.9 1006.93 2107.3 1026C2144.7 1045.07 2173.3 1071.1 2193.1 1104.1C2213.63 1136.37 2223.9 1172.67 2223.9 1213C2223.9 1249.67 2211.07 1284.87 2185.4 1318.6C2160.47 1351.6 2127.47 1380.57 2086.4 1405.5V1407.7ZM2075.4 1268C2075.4 1210.07 2060 1162.77 2029.2 1126.1C1998.4 1089.43 1952.57 1071.1 1891.7 1071.1C1847.7 1071.1 1808.1 1083.57 1772.9 1108.5V1400H1930.2C1975.67 1400 2011.23 1388.63 2036.9 1365.9C2062.57 1342.43 2075.4 1309.43 2075.4 1266.9V1268ZM1946.7 1804.8C1999.5 1804.8 2041.3 1791.6 2072.1 1765.2C2103.63 1738.8 2119.4 1703.23 2119.4 1658.5C2119.4 1601.3 2102.53 1555.1 2068.8 1519.9C2035.8 1484.7 1986.3 1466 1920.3 1463.8C1915.17 1464.53 1908.2 1464.9 1899.4 1464.9H1772.9V1776.2C1822.03 1796 1879.97 1805.9 1946.7 1805.9V1804.8Z" fill="url(#paint0_linear_167_16)"/>
</g>
<defs>
<filter id="filter0_d_167_16" x="1550" y="996.4" width="790.9" height="931.7" filterUnits="userSpaceOnUse" color-interpolation-filters="sRGB">
<feFlood flood-opacity="0" result="BackgroundImageFix"/>
<feColorMatrix in="SourceAlpha" type="matrix" values="0 0 0 0 0 0 0 0 0 0 0 0 0 0 0 0 0 0 127 0" result="hardAlpha"/>
<feOffset dy="21"/>
<feGaussianBlur stdDeviation="11"/>
<feComposite in2="hardAlpha" operator="out"/>
<feColorMatrix type="matrix" values="0 0 0 0 0 0 0 0 0 0 0 0 0 0 0 0 0 0 0.9 0"/>
<feBlend mode="normal" in2="BackgroundImageFix" result="effect1_dropShadow_167_16"/>
<feBlend mode="normal" in="SourceGraphic" in2="effect1_dropShadow_167_16" result="shape"/>
</filter>
<filter id="filter1_d_167_16" x="1517" y="997.4" width="754.9" height="895.7" filterUnits="userSpaceOnUse" color-interpolation-filters="sRGB">
<feFlood flood-opacity="0" result="BackgroundImageFix"/>
<feColorMatrix in="SourceAlpha" type="matrix" values="0 0 0 0 0 0 0 0 0 0 0 0 0 0 0 0 0 0 127 0" result="hardAlpha"/>
<feOffset dy="4"/>
<feGaussianBlur stdDeviation="2"/>
<feComposite in2="hardAlpha" operator="out"/>
<feColorMatrix type="matrix" values="0 0 0 0 0 0 0 0 0 0 0 0 0 0 0 0 0 0 0.25 0"/>
<feBlend mode="normal" in2="BackgroundImageFix" result="effect1_dropShadow_167_16"/>
<feBlend mode="normal" in="SourceGraphic" in2="effect1_dropShadow_167_16" result="shape"/>
</filter>
<linearGradient id="paint0_linear_167_16" x1="2994" y1="0" x2="2994" y2="3379" gradientUnits="userSpaceOnUse">
<stop offset="0.005" stop-color="#BF5252"/>
<stop offset="0.115" stop-color="#BF5252"/>
<stop offset="0.185" stop-color="#913E3E"/>
<stop offset="0.27" stop-color="#592626"/>
<stop offset="0.57" stop-color="#7F3636"/>
<stop offset="0.735" stop-color="#6B2E2E"/>
</linearGradient>
</defs>
</svg>
