<svg width="1677" height="1727" viewBox="0 0 1677 1727" fill="none" xmlns="http://www.w3.org/2000/svg">
<rect width="592" height="503" rx="35" fill="#D9D9D9"/>
<g filter="url(#filter0_d_167_13)">
<path d="M325.52 251.86C334.76 254.5 342.02 258.94 347.3 265.18C352.58 271.42 355.22 278.62 355.22 286.78C355.22 294.34 352.16 301.48 346.04 308.2C340.04 314.8 332.48 320.08 323.36 324.04C314.36 328 305.78 329.98 297.62 329.98C291.62 329.98 285.74 329.68 279.98 329.08C270.38 328.48 262.94 328.18 257.66 328.18H234.8V322.6L251.72 309.28V199.84L233 193.72L236.6 186.52H257.48C268.4 186.52 279.14 186.16 289.7 185.44C297.86 184.96 303.86 184.72 307.7 184.72C315.74 184.72 322.82 186.28 328.94 189.4C335.06 192.52 339.74 196.78 342.98 202.18C346.34 207.46 348.02 213.4 348.02 220C348.02 226 345.92 231.76 341.72 237.28C337.64 242.68 332.24 247.42 325.52 251.5V251.86ZM323.72 229C323.72 219.52 321.2 211.78 316.16 205.78C311.12 199.78 303.62 196.78 293.66 196.78C286.46 196.78 279.98 198.82 274.22 202.9V250.6H299.96C307.4 250.6 313.22 248.74 317.42 245.02C321.62 241.18 323.72 235.78 323.72 228.82V229ZM302.66 316.84C311.3 316.84 318.14 314.68 323.18 310.36C328.34 306.04 330.92 300.22 330.92 292.9C330.92 283.54 328.16 275.98 322.64 270.22C317.24 264.46 309.14 261.4 298.34 261.04C297.5 261.16 296.36 261.22 294.92 261.22H274.22V312.16C282.26 315.4 291.74 317.02 302.66 317.02V316.84Z" fill="white"/>
</g>
<path d="M311.52 251.86C320.76 254.5 328.02 258.94 333.3 265.18C338.58 271.42 341.22 278.62 341.22 286.78C341.22 294.34 338.16 301.48 332.04 308.2C326.04 314.8 318.48 320.08 309.36 324.04C300.36 328 291.78 329.98 283.62 329.98C277.62 329.98 271.74 329.68 265.98 329.08C256.38 328.48 248.94 328.18 243.66 328.18H220.8V322.6L237.72 309.28V199.84L219 193.72L222.6 186.52H243.48C254.4 186.52 265.14 186.16 275.7 185.44C283.86 184.96 289.86 184.72 293.7 184.72C301.74 184.72 308.82 186.28 314.94 189.4C321.06 192.52 325.74 196.78 328.98 202.18C332.34 207.46 334.02 213.4 334.02 220C334.02 226 331.92 231.76 327.72 237.28C323.64 242.68 318.24 247.42 311.52 251.5V251.86ZM309.72 229C309.72 219.52 307.2 211.78 302.16 205.78C297.12 199.78 289.62 196.78 279.66 196.78C272.46 196.78 265.98 198.82 260.22 202.9V250.6H285.96C293.4 250.6 299.22 248.74 303.42 245.02C307.62 241.18 309.72 235.78 309.72 228.82V229ZM288.66 316.84C297.3 316.84 304.14 314.68 309.18 310.36C314.34 306.04 316.92 300.22 316.92 292.9C316.92 283.54 314.16 275.98 308.64 270.22C303.24 264.46 295.14 261.4 284.34 261.04C283.5 261.16 282.36 261.22 280.92 261.22H260.22V312.16C268.26 315.4 277.74 317.02 288.66 317.02V316.84Z" fill="url(#paint0_linear_167_13)"/>
<defs>
<filter id="filter0_d_167_13" x="227" y="184.72" width="134.22" height="157.261" filterUnits="userSpaceOnUse" color-interpolation-filters="sRGB">
<feFlood flood-opacity="0" result="BackgroundImageFix"/>
<feColorMatrix in="SourceAlpha" type="matrix" values="0 0 0 0 0 0 0 0 0 0 0 0 0 0 0 0 0 0 127 0" result="hardAlpha"/>
<feOffset dy="6"/>
<feGaussianBlur stdDeviation="3"/>
<feComposite in2="hardAlpha" operator="out"/>
<feColorMatrix type="matrix" values="0 0 0 0 0 0 0 0 0 0 0 0 0 0 0 0 0 0 0.6 0"/>
<feBlend mode="normal" in2="BackgroundImageFix" result="effect1_dropShadow_167_13"/>
<feBlend mode="normal" in="SourceGraphic" in2="effect1_dropShadow_167_13" result="shape"/>
</filter>
<linearGradient id="paint0_linear_167_13" x1="936.5" y1="22" x2="936.5" y2="1727" gradientUnits="userSpaceOnUse">
<stop offset="0.005" stop-color="#BF5252"/>
<stop offset="0.07" stop-color="#592626"/>
<stop offset="0.115" stop-color="#BF5252"/>
<stop offset="0.185" stop-color="#913E3E"/>
<stop offset="0.57" stop-color="#7F3636"/>
<stop offset="0.735" stop-color="#6B2E2E"/>
</linearGradient>
</defs>
</svg>
