<svg width="1724" height="1518" viewBox="0 0 1724 1518" fill="none" xmlns="http://www.w3.org/2000/svg">
<path d="M931.5 955V1115C931.5 1234.85 1028.65 1332 1148.5 1332H1348.13C1363.14 1332 1377.91 1328.26 1391.12 1321.12C1420.31 1305.34 1438.5 1274.82 1438.5 1241.63V1210.3C1438.5 1170.86 1422.21 1133.18 1393.48 1106.17L1253.39 974.451C1248.52 969.871 1242.72 966.391 1236.39 964.247L1207.82 954.578C1171.61 942.326 1174.09 890.313 1211.29 881.552C1217.02 880.202 1222.36 877.541 1226.88 873.778L1242.06 861.156C1256.81 848.892 1268.46 833.32 1276.06 815.707L1280.6 805.169C1284.53 796.074 1287.65 786.653 1289.93 777.014L1306.5 707L1315 622V607.165C1315 577.374 1308.85 547.87 1296.97 520.554C1290.02 504.588 1281.17 489.498 1270.62 475.646L1227.64 419.202C1206.52 391.476 1179.04 369.242 1147.52 354.383L1106.9 335.238C1090.5 327.508 1072.6 323.5 1054.47 323.5C986.556 323.5 931.5 378.556 931.5 446.47V622V955Z" fill="#FCF6F6" fill-opacity="0.55" stroke="black"/>
<g filter="url(#filter0_f_166_7)">
<path d="M986 965.146V1110C986 1165.23 1030.77 1210 1086 1210H1245.84C1255.65 1210 1265.29 1207.48 1273.83 1202.68C1291.85 1192.56 1303 1173.5 1303 1152.84V1130.77C1303 1105.22 1292.7 1080.76 1274.42 1062.91L1191.81 982.217C1185.8 976.348 1178.38 972.129 1170.26 969.967L1107.28 953.192C1089.68 948.506 1086.22 925.047 1101.72 915.482C1103.14 914.605 1104.45 913.56 1105.62 912.369L1165.2 851.741C1176.65 840.091 1185.07 825.814 1189.73 810.158L1203.81 762.823C1206.56 753.57 1207.96 743.966 1207.96 734.312V700.088C1207.96 678.824 1201.18 658.114 1188.61 640.965L1165.62 609.607C1156.06 596.562 1143.48 586.031 1128.95 578.919L1096 562.784C1085.54 557.662 1074.05 555 1062.4 555C1020.21 555 986 589.205 986 631.4V748.87V965.146Z" fill="black"/>
</g>
<path d="M733.983 939.188L736.15 1273.76C736.926 1393.6 834.707 1490.12 954.551 1489.35L1141.06 1488.14C1164.37 1487.99 1186.94 1479.97 1205.12 1465.4C1229.8 1445.61 1244.08 1415.62 1243.87 1383.98L1243.26 1289.54C1242.97 1243.69 1228.16 1199.12 1200.96 1162.22L1058.71 969.172C1052.07 960.151 1043.33 952.876 1033.26 947.969L1001.44 932.468C957.893 911.26 961.531 848.051 1007.22 831.977C1016.73 828.632 1025.12 822.716 1031.47 814.888L1047.44 795.214C1059.63 780.185 1068.67 762.856 1074.02 744.26L1087.43 697.683L1106.63 573.927L1114.32 449.515L1113.96 393.316C1113.82 372.371 1110.65 351.556 1104.55 331.518L1090.68 285.957C1086.66 272.742 1081.38 259.941 1074.92 247.729L1017.71 139.519C1001.16 108.213 977.192 81.4337 947.91 61.5182L908.046 34.4057C888.802 21.3175 866.034 14.3893 842.762 14.54C779.381 14.9505 728.333 66.6637 728.743 130.045L730.828 451.998L733.983 939.188Z" fill="#FCF6F6" fill-opacity="0.55" stroke="black"/>
<g filter="url(#filter1_f_166_7)">
<path d="M788.377 922.639L790.617 1268.4C790.974 1323.63 836.035 1368.11 891.262 1367.75L1035.4 1366.82C1055 1366.69 1073.73 1358.67 1087.35 1344.56C1100.57 1330.86 1107.91 1312.53 1107.79 1293.49L1107.02 1175.57C1106.91 1158.4 1102.38 1141.55 1093.87 1126.63L997.975 958.68C989.598 944.009 976.937 932.248 961.688 924.975L916.632 903.487C889.629 890.608 882.417 855.488 902.161 833.011C904.468 830.385 906.461 827.5 908.102 824.413L975.579 697.453C980.801 687.628 984.347 677 986.07 666.007L1006.53 535.484C1007.37 530.147 1007.77 524.752 1007.73 519.351L1006.95 398.453C1006.87 385.654 1004.33 372.99 999.47 361.148L957.898 259.808C952.054 245.561 942.998 232.857 931.437 222.684L897.13 192.5C884.577 181.454 868.4 175.41 851.679 175.519C814.048 175.762 783.74 206.466 783.983 244.097L785.828 528.903L788.377 922.639Z" fill="black"/>
</g>
<path d="M1352.25 9.51439L1507.03 11.8793C1626.86 13.7102 1722.56 112.338 1720.78 232.17L1717.8 432.15C1717.58 446.919 1713.73 461.406 1706.59 474.332C1690.52 503.418 1659.71 521.27 1626.48 520.762L1596.56 520.305C1557.64 519.71 1520.72 502.922 1494.68 473.978L1366.55 331.558C1362.17 326.687 1358.87 320.936 1356.89 314.691L1347.81 286.056C1336.36 249.961 1284.73 251.597 1275.62 288.344C1274.23 293.936 1271.58 299.132 1267.86 303.531L1255.21 318.493C1242.82 333.144 1227.14 344.65 1209.45 352.071L1199.38 356.291C1190.31 360.097 1180.92 363.092 1171.31 365.243L1102.12 380.735L1018.18 387.954L1003.79 387.734C974.264 387.283 945.158 380.682 918.325 368.352C902.733 361.188 888.066 352.161 874.644 341.47L819.741 297.735C792.556 276.079 770.966 248.214 756.787 216.482L738.415 175.364C731.091 158.974 727.435 141.185 727.702 123.238C728.713 55.1757 784.709 0.843021 852.771 1.88294L1023.88 4.4973L1352.25 9.51439Z" fill="#FCF6F6" fill-opacity="0.55" stroke="black"/>
<g filter="url(#filter2_f_166_7)">
<path d="M1361.44 64.1611L1502.9 66.3224C1558.12 67.1662 1602.22 112.617 1601.4 167.839L1599.02 327.906C1598.88 337.553 1596.29 347.005 1591.49 355.373C1581.19 373.32 1561.96 384.261 1541.27 383.945L1520.12 383.622C1494.9 383.236 1470.93 372.607 1453.7 354.178L1375.11 270.084C1369.48 264.063 1365.49 256.7 1363.51 248.699L1347.83 185.149C1343.51 167.663 1320.32 163.914 1310.73 179.153C1309.86 180.538 1308.82 181.814 1307.64 182.952L1247.2 241.401C1235.38 252.826 1220.93 261.16 1205.12 265.667L1159.06 278.796C1149.66 281.477 1139.91 282.764 1130.12 282.615L1097.59 282.117C1076.1 281.789 1055.29 274.547 1038.24 261.464L1008.31 238.504C995.501 228.682 985.262 215.908 978.462 201.272L962.987 167.963C958.128 157.503 955.693 146.082 955.864 134.551C956.493 92.2631 991.283 58.5055 1033.57 59.1516L1148.17 60.9026L1361.44 64.1611Z" fill="black"/>
</g>
<path d="M1347.69 1514.72L1494.67 1515.87C1614.51 1516.8 1712.5 1420.41 1713.52 1300.56L1715.24 1100.02C1715.36 1085.6 1712 1071.38 1705.44 1058.55C1690.27 1028.89 1659.88 1010.14 1626.56 1009.88L1598.76 1009.67C1560.6 1009.37 1524.08 1025.2 1498.19 1053.25L1368.98 1193.25C1364.67 1197.92 1361.4 1203.44 1359.38 1209.46L1349.86 1237.76C1337.97 1273.15 1287.03 1270.4 1279.07 1233.95C1277.88 1228.5 1275.47 1223.4 1272.02 1219.02L1260.01 1203.82C1248.12 1188.75 1232.81 1176.74 1215.35 1168.77L1206.2 1164.59C1197.33 1160.55 1188.12 1157.31 1178.67 1154.91L1111.46 1137.88L1029.47 1128.74L1001.25 1128.52C981.668 1128.37 962.276 1132.38 944.356 1140.28L940.841 1141.83C919.42 1151.28 895.779 1154.52 872.615 1151.18L735.681 1131.44C615.286 1114.08 566.334 1280.99 677.08 1331.25L685.32 1334.99C718.138 1349.89 739.09 1382.72 738.781 1418.77C738.35 1469.14 778.838 1510.3 829.214 1510.69L1026.19 1512.22L1347.69 1514.72Z" fill="#FCF6F6" fill-opacity="0.55" stroke="black"/>
<g filter="url(#filter3_f_166_7)">
<path d="M1357.95 1460.3L1494.35 1461.36C1549.57 1461.79 1594.73 1417.37 1595.2 1362.14L1596.57 1201.7C1596.65 1192.29 1594.38 1183 1589.96 1174.69C1580.23 1156.38 1561.25 1144.88 1540.51 1144.71L1520.73 1144.56C1496.01 1144.37 1472.29 1154.38 1455.18 1172.23L1375.91 1254.92C1370.37 1260.7 1366.39 1267.79 1364.33 1275.52L1347.38 1339.18C1342.82 1356.29 1319.87 1359.41 1310.94 1344.13C1310.14 1342.76 1309.17 1341.49 1308.07 1340.34L1250.58 1280.86C1239.05 1268.93 1224.73 1260.06 1208.91 1255.05L1165.39 1241.27C1155.88 1238.26 1145.97 1236.68 1135.99 1236.61L1106.01 1236.37C1084.17 1236.2 1062.87 1243.19 1045.36 1256.26L1016.53 1277.78C1003.65 1287.4 993.278 1299.98 986.286 1314.45L970.28 1347.59C965.337 1357.82 962.724 1369.02 962.627 1380.37C962.264 1422.81 996.375 1457.49 1038.82 1457.82L1149.14 1458.68L1357.95 1460.3Z" fill="black"/>
</g>
<path d="M1716.24 552.994L1716.55 392.994C1716.79 273.149 1619.82 175.804 1499.98 175.569L1300.35 175.177C1285.34 175.148 1270.56 178.857 1257.34 185.97C1228.12 201.699 1209.87 232.181 1209.8 265.368L1209.74 296.702C1209.66 336.136 1225.88 373.851 1254.56 400.921L1394.38 532.912C1399.25 537.502 1405.04 540.993 1411.37 543.149L1439.92 552.874C1476.1 565.197 1473.53 617.205 1436.31 625.893C1430.57 627.231 1425.23 629.882 1420.7 633.636L1405.49 646.229C1390.72 658.464 1379.04 674.013 1371.41 691.611L1366.84 702.14C1362.9 711.227 1359.76 720.642 1357.46 730.277L1340.75 800.258L1332.09 885.241L1332.06 900.076C1332 929.867 1338.09 959.382 1349.92 986.723C1356.84 1002.7 1365.66 1017.81 1376.18 1031.68L1419.05 1088.21C1440.11 1115.98 1467.55 1138.27 1499.04 1153.19L1539.62 1172.41C1556 1180.17 1573.9 1184.22 1592.03 1184.25C1659.94 1184.38 1715.11 1129.44 1715.24 1061.52L1715.58 885.993L1716.24 552.994Z" fill="#FCF6F6" fill-opacity="0.55" stroke="black"/>
<g filter="url(#filter4_f_166_7)">
<path d="M1661.76 542.741L1662.04 397.887C1662.15 342.659 1617.47 297.8 1562.24 297.691L1402.4 297.378C1392.59 297.359 1382.95 299.862 1374.39 304.646C1356.36 314.73 1345.17 333.762 1345.13 354.424L1345.08 376.493C1345.03 402.041 1355.29 426.529 1373.53 444.416L1455.99 525.266C1461.98 531.147 1469.4 535.381 1477.51 537.558L1540.46 554.457C1558.04 559.178 1561.45 582.644 1545.94 592.178C1544.52 593.052 1543.21 594.094 1542.03 595.283L1482.33 655.794C1470.86 667.422 1462.41 681.682 1457.72 697.329L1443.55 744.636C1440.78 753.884 1439.36 763.485 1439.34 773.139L1439.28 807.363C1439.23 828.627 1445.97 849.35 1458.51 866.524L1481.44 897.927C1490.97 910.991 1503.54 921.546 1518.05 928.687L1550.97 944.887C1561.42 950.029 1572.91 952.714 1584.55 952.736C1626.75 952.819 1661.02 918.681 1661.1 876.487L1661.33 759.017L1661.76 542.741Z" fill="black"/>
</g>
<defs>
<filter id="filter0_f_166_7" x="979" y="548" width="331" height="669" filterUnits="userSpaceOnUse" color-interpolation-filters="sRGB">
<feFlood flood-opacity="0" result="BackgroundImageFix"/>
<feBlend mode="normal" in="SourceGraphic" in2="BackgroundImageFix" result="shape"/>
<feGaussianBlur stdDeviation="3.5" result="effect1_foregroundBlur_166_7"/>
</filter>
<filter id="filter1_f_166_7" x="776.982" y="168.517" width="337.805" height="1206.24" filterUnits="userSpaceOnUse" color-interpolation-filters="sRGB">
<feFlood flood-opacity="0" result="BackgroundImageFix"/>
<feBlend mode="normal" in="SourceGraphic" in2="BackgroundImageFix" result="shape"/>
<feGaussianBlur stdDeviation="3.5" result="effect1_foregroundBlur_166_7"/>
</filter>
<filter id="filter2_f_166_7" x="948.855" y="52.1426" width="659.558" height="338.809" filterUnits="userSpaceOnUse" color-interpolation-filters="sRGB">
<feFlood flood-opacity="0" result="BackgroundImageFix"/>
<feBlend mode="normal" in="SourceGraphic" in2="BackgroundImageFix" result="shape"/>
<feGaussianBlur stdDeviation="3.5" result="effect1_foregroundBlur_166_7"/>
</filter>
<filter id="filter3_f_166_7" x="955.624" y="1137.56" width="647.95" height="330.808" filterUnits="userSpaceOnUse" color-interpolation-filters="sRGB">
<feFlood flood-opacity="0" result="BackgroundImageFix"/>
<feBlend mode="normal" in="SourceGraphic" in2="BackgroundImageFix" result="shape"/>
<feGaussianBlur stdDeviation="3.5" result="effect1_foregroundBlur_166_7"/>
</filter>
<filter id="filter4_f_166_7" x="1338.08" y="290.378" width="330.959" height="669.359" filterUnits="userSpaceOnUse" color-interpolation-filters="sRGB">
<feFlood flood-opacity="0" result="BackgroundImageFix"/>
<feBlend mode="normal" in="SourceGraphic" in2="BackgroundImageFix" result="shape"/>
<feGaussianBlur stdDeviation="3.5" result="effect1_foregroundBlur_166_7"/>
</filter>
</defs>
</svg>
